<?xml version="1.0" encoding="UTF-8"?>
<svg width="1024px" height="1024px" viewBox="0 0 1024 1024" version="1.1" xmlns="http://www.w3.org/2000/svg" xmlns:xlink="http://www.w3.org/1999/xlink">
    <title>evolyn-logo</title>
    <defs>
        <linearGradient x1="50%" y1="5.89453663%" x2="50%" y2="83.0588358%" id="linearGradient-1">
            <stop stop-color="#2E86DE" stop-opacity="0" offset="0%"></stop>
            <stop stop-color="#2E86DE" offset="100%"></stop>
        </linearGradient>
        <linearGradient x1="50%" y1="5.89453663%" x2="50%" y2="83.5616959%" id="linearGradient-2">
            <stop stop-color="#2E86DE" stop-opacity="0" offset="0%"></stop>
            <stop stop-color="#2E86DE" stop-opacity="0.4" offset="100%"></stop>
        </linearGradient>
    </defs>
    <g id="evolyn-logo" stroke="none" stroke-width="1" fill="none" fill-rule="evenodd">
        <rect id="background" fill="#54A0FF" x="0" y="0" width="1024" height="1024" rx="268"></rect>
        <g id="actev" transform="translate(153.000000, 269.000000)" fill-rule="nonzero">
            <path d="M561.809292,1.11917609 L867.396868,531.052239 C846.385752,658.105608 736.008325,755 603,755 L157.749472,754.999176 L0.688472341,483.151486 L261.682963,39.038061 L479.67863,39.0380623 C501.241784,36.7838935 516.658519,33.5168043 525.928843,29.2367904 C535.199167,24.9567765 547.159314,15.5842403 561.809292,1.11917609 Z" id="Combined-Shape" fill="url(#linearGradient-1)"></path>
            <g id="actev-logo">
                <path d="M256.518058,38.0736739 L180.285369,170.803437 L464.642174,170.803437 C490.512324,168.889369 509.173755,165.547857 520.626465,160.778901 C532.07917,156.009944 545.645325,145.931752 561.324925,130.544325 L561.324925,0 C546.840124,14.4450981 534.875622,23.8558956 525.431425,28.2323926 C515.987227,32.6088895 500.564879,35.8893167 479.164388,38.0736739 L256.518058,38.0736739 Z" id="Path" fill="#FFFFFF"></path>
                <polygon id="Path" fill="#FFFFFF" points="165.115648 196.954369 88.5195078 329.684131 549.059545 329.684131 472.802114 196.954369"></polygon>
                <path d="M76.3920142,351.270238 L-2.84217094e-14,484 L622.317247,484 C648.187399,482.085931 666.84883,478.744422 678.301535,473.975463 C689.754245,469.206509 703.320395,459.128316 719,443.740888 L719,313.196564 C704.515199,327.641662 692.550697,337.052459 683.1065,341.428956 C673.662297,345.805453 658.239954,349.08588 636.839459,351.270238 L76.3920142,351.270238 Z" id="Path" fill="#FFFFFF"></path>
                <path d="M472.802114,196.954369 L549.059545,329.684131 L356.407492,329.684131 C382.375039,303.308532 400.06654,282.623322 409.481995,267.628501 C418.89745,252.633681 428.9869,229.075637 439.750345,196.954369 L472.802114,196.954369 Z" id="Path-2" fill-opacity="0.6" fill="#DFE4EA"></path>
            </g>
            <path d="M562.074078,1.52452211 L867.403636,531.011292 C846.409466,658.08479 736.022613,755 603,755 L157.780261,754.999522 L0.953261009,483.556832 L261.947749,39.4434071 L479.94342,39.443406 C501.50657,37.1892391 516.92331,33.922148 526.19363,29.6421365 C535.463954,25.3621226 547.424104,15.9895835 562.074078,1.52452211 Z" id="Combined-Shape" fill="url(#linearGradient-2)"></path>
        </g>
    </g>
</svg>